<svg width="20" height="20" viewBox="0 0 20 20" fill="none" xmlns="http://www.w3.org/2000/svg">
<path d="M3.5 20C2.53333 20 1.70833 19.6583 1.025 18.975C0.341667 18.2917 0 17.4667 0 16.5C0 15.5333 0.341667 14.7083 1.025 14.025C1.70833 13.3417 2.53333 13 3.5 13C3.8 13 4.09167 13.0373 4.375 13.112C4.65833 13.1867 4.925 13.291 5.175 13.425L9 9.6V6.85C8.26667 6.63333 7.66667 6.221 7.2 5.613C6.73333 5.005 6.5 4.30067 6.5 3.5C6.5 2.53333 6.84167 1.70833 7.525 1.025C8.20833 0.341667 9.03333 0 10 0C10.9667 0 11.7917 0.341667 12.475 1.025C13.1583 1.70833 13.5 2.53333 13.5 3.5C13.5 4.3 13.2667 5.00433 12.8 5.613C12.3333 6.22167 11.7333 6.634 11 6.85V9.6L14.85 13.425C15.1 13.2917 15.3627 13.1877 15.638 13.113C15.9133 13.0383 16.2007 13.0007 16.5 13C17.4667 13 18.2917 13.3417 18.975 14.025C19.6583 14.7083 20 15.5333 20 16.5C20 17.4667 19.6583 18.2917 18.975 18.975C18.2917 19.6583 17.4667 20 16.5 20C15.5333 20 14.7083 19.6583 14.025 18.975C13.3417 18.2917 13 17.4667 13 16.5C13 16.2 13.0373 15.9083 13.112 15.625C13.1867 15.3417 13.291 15.075 13.425 14.825L10 11.4L6.575 14.825C6.70833 15.075 6.81267 15.3417 6.888 15.625C6.96333 15.9083 7.00067 16.2 7 16.5C7 17.4667 6.65833 18.2917 5.975 18.975C5.29167 19.6583 4.46667 20 3.5 20ZM16.5 18C16.9167 18 17.271 17.8543 17.563 17.563C17.855 17.2717 18.0007 16.9173 18 16.5C17.9993 16.0827 17.8537 15.7287 17.563 15.438C17.2723 15.1473 16.918 15.0013 16.5 15C16.082 14.9987 15.728 15.1447 15.438 15.438C15.148 15.7313 15.002 16.0853 15 16.5C14.998 16.9147 15.144 17.269 15.438 17.563C15.732 17.857 16.086 18.0027 16.5 18ZM10 5C10.4167 5 10.771 4.85433 11.063 4.563C11.355 4.27167 11.5007 3.91733 11.5 3.5C11.4993 3.08267 11.3537 2.72867 11.063 2.438C10.7723 2.14733 10.418 2.00133 10 2C9.582 1.99867 9.228 2.14467 8.938 2.438C8.648 2.73133 8.502 3.08533 8.5 3.5C8.498 3.91467 8.644 4.269 8.938 4.563C9.232 4.857 9.586 5.00267 10 5ZM3.5 18C3.91667 18 4.271 17.8543 4.563 17.563C4.855 17.2717 5.00067 16.9173 5 16.5C4.99933 16.0827 4.85367 15.7287 4.563 15.438C4.27233 15.1473 3.918 15.0013 3.5 15C3.082 14.9987 2.728 15.1447 2.438 15.438C2.148 15.7313 2.002 16.0853 2 16.5C1.998 16.9147 2.144 17.269 2.438 17.563C2.732 17.857 3.086 18.0027 3.5 18Z" fill="white"/>
</svg>
