<svg width="17" height="17" viewBox="0 0 17 17" fill="none" xmlns="http://www.w3.org/2000/svg">
<path d="M8.33335 4.16699C8.09723 4.16699 7.89918 4.24699 7.73918 4.40699C7.57918 4.56699 7.49946 4.76477 7.50001 5.00033V8.33366C7.50001 8.56977 7.58001 8.76755 7.74001 8.92699C7.90001 9.08644 8.09779 9.16644 8.33335 9.16699C8.5689 9.16755 8.76668 9.08755 8.92668 8.92699C9.08668 8.76644 9.16668 8.56866 9.16668 8.33366V5.00033C9.16668 4.76421 9.08668 4.56616 8.92668 4.40616C8.76668 4.24616 8.5689 4.16644 8.33335 4.16699ZM8.33335 10.8337C8.09723 10.8337 7.89918 10.9137 7.73918 11.0737C7.57918 11.2337 7.49946 11.4314 7.50001 11.667C7.50057 11.9025 7.58057 12.1003 7.74001 12.2603C7.89946 12.4203 8.09723 12.5003 8.33335 12.5003C8.56946 12.5003 8.76723 12.4203 8.92668 12.2603C9.08612 12.1003 9.16612 11.9025 9.16668 11.667C9.16723 11.4314 9.08723 11.2334 8.92668 11.0728C8.76612 10.9123 8.56835 10.8325 8.33335 10.8337ZM8.33335 0.000324249C9.48612 0.000324249 10.5695 0.219213 11.5833 0.656992C12.5972 1.09477 13.4792 1.68838 14.2292 2.43782C14.9792 3.18727 15.5728 4.06921 16.01 5.08366C16.4472 6.0981 16.6661 7.18144 16.6667 8.33366C16.6672 9.48588 16.4483 10.5692 16.01 11.5837C15.5717 12.5981 14.9781 13.48 14.2292 14.2295C13.4803 14.9789 12.5983 15.5725 11.5833 16.0103C10.5683 16.4481 9.48501 16.667 8.33335 16.667C7.18168 16.667 6.09835 16.4481 5.08335 16.0103C4.06835 15.5725 3.1864 14.9789 2.43751 14.2295C1.68862 13.48 1.09473 12.5981 0.655846 11.5837C0.216957 10.5692 -0.00165558 9.48588 1.14441e-05 8.33366C0.00167847 7.18144 0.220568 6.0981 0.656679 5.08366C1.09279 4.06921 1.6864 3.18727 2.43751 2.43782C3.18862 1.68838 4.07057 1.09449 5.08335 0.656158C6.09612 0.217825 7.17946 -0.000785828 8.33335 0.000324249ZM8.33335 1.66699C6.47223 1.66699 4.89585 2.31283 3.60418 3.60449C2.31251 4.89616 1.66668 6.47255 1.66668 8.33366C1.66668 10.1948 2.31251 11.7712 3.60418 13.0628C4.89585 14.3545 6.47223 15.0003 8.33335 15.0003C10.1945 15.0003 11.7708 14.3545 13.0625 13.0628C14.3542 11.7712 15 10.1948 15 8.33366C15 6.47255 14.3542 4.89616 13.0625 3.60449C11.7708 2.31283 10.1945 1.66699 8.33335 1.66699Z" fill="#C50F0F"/>
</svg>
