<svg width="200" height="45" viewBox="0 0 200 45" fill="none" xmlns="http://www.w3.org/2000/svg">
<path d="M0.204312 20.5372L0.0677149 20.5526C0.018746 21.1884 -0.00444977 21.8267 0.000704851 22.4779C0.0728695 34.4568 9.58314 44.145 21.4413 44.6263C21.6836 44.634 21.9362 44.6391 22.1939 44.6391C24.1372 44.6391 26.4877 44.4204 28.9645 43.6868L0.204312 20.5372Z" fill="#6C6FA9"/>
<path d="M159.841 8.92889C158.731 10.3857 157.795 11.9815 157.066 13.6906C153.408 14.6841 146.488 15.5541 137.777 16.2825L89.7051 28.3927L89.7876 28.4287C96.8004 28.264 104.074 28.1662 111.177 28.1662C130.79 28.1662 149.089 28.9178 157.012 31.0902C160.396 39.1439 168.359 44.7936 177.633 44.7936H177.774C178.414 44.7884 179.042 44.7575 179.666 44.7035L159.844 8.93147L159.841 8.92889Z" fill="#40B8B2"/>
<path d="M163.924 4.81055C162.393 5.99969 161.022 7.38702 159.844 8.92878L179.666 44.6957C190.068 43.7639 198.4 35.723 199.797 25.4995L163.924 4.81055Z" fill="#DEDB2E"/>
<path d="M137.778 16.2798C118.164 17.9168 89.4426 18.8383 68.3164 18.8537L89.7055 28.39L137.778 16.2798Z" fill="#DEDB2E"/>
<path d="M22.3615 0H22.2249C14.3048 0.048904 7.37183 4.20575 3.43628 10.432L44.0779 17.0443C43.5444 14.854 42.6836 12.7923 41.5573 10.9082C38.5109 5.068 32.4259 2.40402 32.4259 2.40402C29.3975 0.877699 25.9826 0 22.3615 0ZM0.0780444 20.4367C0.0754671 20.4754 0.0728898 20.5165 0.0703125 20.5526L0.204333 20.5371L0.0780444 20.4342V20.4367Z" fill="#40B8B2"/>
<path d="M177.636 0.115784H177.495C172.373 0.14667 167.667 1.89692 163.92 4.81315L199.794 25.4996C199.935 24.4597 200.005 23.3967 200 22.3156C199.922 10.0279 189.922 0.115784 177.636 0.115784Z" fill="#6C6FA9"/>
<path d="M3.43698 10.4321C1.57617 13.374 0.385449 16.7819 0.0761719 20.4368L0.205037 20.5398L28.9627 43.6842C31.7333 42.8657 34.6611 41.3986 37.3673 38.8685C39.6508 36.8016 41.5013 34.2767 42.777 31.4299C43.4162 31.2755 44.0425 31.1236 44.6662 30.9718C48.1456 30.1301 67.6816 28.9487 89.7872 28.4313L89.7047 28.3927L68.3156 18.859C68.3156 18.859 48.8982 18.6377 44.3209 18.1718C44.2487 17.7934 44.1662 17.4176 44.076 17.047L3.43698 10.4321Z" fill="#F3975C"/>
</svg>
